<!DOCTYPE svg PUBLIC "-//W3C//DTD SVG 1.1//EN" "http://www.w3.org/Graphics/SVG/1.1/DTD/svg11.dtd">

<!-- Uploaded to: SVG Repo, www.svgrepo.com, Transformed by: SVG Repo Mixer Tools -->
<svg width="800px" height="800px" viewBox="-3.84 -3.84 71.68 71.68" xmlns="http://www.w3.org/2000/svg" stroke-width="3" stroke="#000000" fill="none">

    <g id="SVGRepo_bgCarrier" stroke-width="0"/>

    <g id="SVGRepo_tracerCarrier" stroke-linecap="round" stroke-linejoin="round" stroke="#CCCCCC" stroke-width="12.8"/>

    <g id="SVGRepo_iconCarrier">

        <path d="M37.09,36.41s8.36-.6,8.87-3.12c0,0-4.13-2.22-3.33-10s-1.74-11.86-6.17-10.65c0,0-6.68-8-12.73-.18,0,0-2.76,2.77-2.56,9.12s-.1,9.57-3.73,11.59a10.21,10.21,0,0,0,8.77,3.22l.29,4.32a.55.55,0,0,1-.43.56L20.4,42.58c-4.09,1.07-7.62,3.4-9.20,7.33L9.79,53.43a1.11,1.11,0,0,0,1,1.53H53.18a1.11,1.11,0,0,0,1-1.53l-1.3-3.23c-1.65-4.09-5-6.49-9.31-7.44l-6.18-1.14A.56.56,0,0,1,37,41Z"
              stroke-linecap="round"
              fill="#000000"/> <!-- Add fill attribute with black color -->

    </g>

</svg>
